<svg width="8" height="9" viewBox="0 0 8 9" fill="none" xmlns="http://www.w3.org/2000/svg">
<path d="M4.74999 6.125L6.41666 4.45833C6.56944 4.30556 6.74652 4.22917 6.94791 4.22917C7.1493 4.22917 7.32638 4.30556 7.47916 4.45833C7.63194 4.61111 7.70833 4.7882 7.70833 4.98958C7.70833 5.19097 7.63194 5.36806 7.47916 5.52083L4.52083 8.47917C4.36805 8.63195 4.19444 8.70833 3.99999 8.70833C3.80555 8.70833 3.63194 8.63195 3.47916 8.47917L0.520828 5.52083C0.368051 5.36806 0.291661 5.19444 0.291661 5C0.291661 4.80556 0.368051 4.63194 0.520828 4.47917C0.673606 4.32639 0.850689 4.25 1.05208 4.25C1.25347 4.25 1.43055 4.32639 1.58333 4.47917L3.24999 6.125L3.24999 0.75C3.24999 0.541667 3.32291 0.364583 3.46874 0.21875C3.61458 0.072917 3.79166 0 3.99999 0C4.20833 0 4.38541 0.072917 4.53124 0.21875C4.67708 0.364583 4.74999 0.541667 4.74999 0.75L4.74999 6.125Z" fill="#C41C1C"/>
</svg>
