<svg width="8" height="9" viewBox="0 0 8 9" fill="none" xmlns="http://www.w3.org/2000/svg">
<path d="M3.25 2.875L1.58333 4.54167C1.43056 4.69445 1.25347 4.77083 1.05208 4.77083C0.850696 4.77083 0.673612 4.69445 0.520835 4.54167C0.368057 4.38889 0.291668 4.21181 0.291668 4.01042C0.291668 3.80903 0.368057 3.63195 0.520835 3.47917L3.47917 0.520835C3.63195 0.368057 3.80556 0.291668 4 0.291668C4.19445 0.291668 4.36806 0.368057 4.52083 0.520835L7.47917 3.47917C7.63195 3.63195 7.70833 3.80556 7.70833 4C7.70833 4.19445 7.63195 4.36806 7.47917 4.52083C7.32639 4.67361 7.14931 4.75 6.94792 4.75C6.74653 4.75 6.56945 4.67361 6.41667 4.52083L4.75 2.875V8.25C4.75 8.45833 4.67708 8.63542 4.53125 8.78125C4.38542 8.92708 4.20833 9 4 9C3.79167 9 3.61458 8.92708 3.46875 8.78125C3.32292 8.63542 3.25 8.45833 3.25 8.25V2.875Z" fill="#3BA752"/>
</svg>
